<mxfile host="Electron" agent="Mozilla/5.0 (Windows NT 10.0; Win64; x64) AppleWebKit/537.36 (KHTML, like Gecko) draw.io/24.7.5 Chrome/126.0.6478.183 Electron/31.3.0 Safari/537.36" version="24.7.5">
  <diagram name="第 1 页" id="xlJYE83OGLNzyLJ1OB-h">
    <mxGraphModel dx="510" dy="815" grid="1" gridSize="10" guides="1" tooltips="1" connect="1" arrows="1" fold="1" page="1" pageScale="1" pageWidth="827" pageHeight="1169" math="0" shadow="0">
      <root>
        <mxCell id="0" />
        <mxCell id="1" parent="0" />
        <mxCell id="clAuKbqfWR7MREJ3GIss-2" value="导航栏基本操作" style="strokeWidth=2;html=1;shape=mxgraph.flowchart.decision;whiteSpace=wrap;" vertex="1" parent="1">
          <mxGeometry x="350" y="350" width="160" height="60" as="geometry" />
        </mxCell>
        <mxCell id="clAuKbqfWR7MREJ3GIss-5" value="" style="endArrow=classic;html=1;rounded=0;entryX=0;entryY=0.5;entryDx=0;entryDy=0;" edge="1" parent="1" target="clAuKbqfWR7MREJ3GIss-17">
          <mxGeometry width="50" height="50" relative="1" as="geometry">
            <mxPoint x="510" y="380" as="sourcePoint" />
            <mxPoint x="580" y="380" as="targetPoint" />
          </mxGeometry>
        </mxCell>
        <mxCell id="clAuKbqfWR7MREJ3GIss-8" value="" style="endArrow=classic;html=1;rounded=0;entryX=0.5;entryY=1;entryDx=0;entryDy=0;" edge="1" parent="1" target="clAuKbqfWR7MREJ3GIss-12">
          <mxGeometry width="50" height="50" relative="1" as="geometry">
            <mxPoint x="400" y="360" as="sourcePoint" />
            <mxPoint x="350" y="310" as="targetPoint" />
            <Array as="points">
              <mxPoint x="400" y="360" />
            </Array>
          </mxGeometry>
        </mxCell>
        <mxCell id="clAuKbqfWR7MREJ3GIss-9" value="" style="endArrow=classic;html=1;rounded=0;entryX=0.5;entryY=1;entryDx=0;entryDy=0;" edge="1" parent="1" target="clAuKbqfWR7MREJ3GIss-15">
          <mxGeometry width="50" height="50" relative="1" as="geometry">
            <mxPoint x="460" y="360" as="sourcePoint" />
            <mxPoint x="500" y="310" as="targetPoint" />
            <Array as="points">
              <mxPoint x="460" y="360" />
            </Array>
          </mxGeometry>
        </mxCell>
        <mxCell id="clAuKbqfWR7MREJ3GIss-10" value="" style="endArrow=classic;html=1;rounded=0;entryX=0.5;entryY=0;entryDx=0;entryDy=0;" edge="1" parent="1" target="clAuKbqfWR7MREJ3GIss-19">
          <mxGeometry width="50" height="50" relative="1" as="geometry">
            <mxPoint x="480" y="390" as="sourcePoint" />
            <mxPoint x="526" y="440" as="targetPoint" />
            <Array as="points">
              <mxPoint x="480" y="390" />
            </Array>
          </mxGeometry>
        </mxCell>
        <mxCell id="clAuKbqfWR7MREJ3GIss-11" value="" style="endArrow=classic;html=1;rounded=0;entryX=0.5;entryY=0;entryDx=0;entryDy=0;" edge="1" parent="1" target="clAuKbqfWR7MREJ3GIss-21">
          <mxGeometry width="50" height="50" relative="1" as="geometry">
            <mxPoint x="380" y="390" as="sourcePoint" />
            <mxPoint x="310" y="480" as="targetPoint" />
            <Array as="points">
              <mxPoint x="380" y="390" />
            </Array>
          </mxGeometry>
        </mxCell>
        <mxCell id="clAuKbqfWR7MREJ3GIss-12" value="页面跳转" style="rounded=1;whiteSpace=wrap;html=1;" vertex="1" parent="1">
          <mxGeometry x="260" y="230" width="110" height="40" as="geometry" />
        </mxCell>
        <mxCell id="clAuKbqfWR7MREJ3GIss-14" value="点击导航栏的任意模块链接" style="text;html=1;align=center;verticalAlign=middle;whiteSpace=wrap;rounded=0;" vertex="1" parent="1">
          <mxGeometry x="360" y="290" width="80" height="30" as="geometry" />
        </mxCell>
        <mxCell id="clAuKbqfWR7MREJ3GIss-15" value="查看天气信息" style="rounded=1;whiteSpace=wrap;html=1;" vertex="1" parent="1">
          <mxGeometry x="490" y="230" width="110" height="40" as="geometry" />
        </mxCell>
        <mxCell id="clAuKbqfWR7MREJ3GIss-16" value="鼠标移动到导航栏的天气图标上" style="text;html=1;align=center;verticalAlign=middle;whiteSpace=wrap;rounded=0;" vertex="1" parent="1">
          <mxGeometry x="520" y="310" width="90" height="30" as="geometry" />
        </mxCell>
        <mxCell id="clAuKbqfWR7MREJ3GIss-17" value="切换语言" style="rounded=1;whiteSpace=wrap;html=1;" vertex="1" parent="1">
          <mxGeometry x="640" y="360" width="110" height="40" as="geometry" />
        </mxCell>
        <mxCell id="clAuKbqfWR7MREJ3GIss-18" value="点击导航栏的语言转换按钮，选择目标语言" style="text;html=1;align=center;verticalAlign=middle;whiteSpace=wrap;rounded=0;" vertex="1" parent="1">
          <mxGeometry x="510" y="390" width="130" height="30" as="geometry" />
        </mxCell>
        <mxCell id="clAuKbqfWR7MREJ3GIss-19" value="切换白天/黑夜模式" style="rounded=1;whiteSpace=wrap;html=1;" vertex="1" parent="1">
          <mxGeometry x="520" y="480" width="110" height="40" as="geometry" />
        </mxCell>
        <mxCell id="clAuKbqfWR7MREJ3GIss-20" value="点击导航栏的白天/黑夜模式切换按钮" style="text;html=1;align=center;verticalAlign=middle;whiteSpace=wrap;rounded=0;" vertex="1" parent="1">
          <mxGeometry x="414" y="430" width="110" height="30" as="geometry" />
        </mxCell>
        <mxCell id="clAuKbqfWR7MREJ3GIss-21" value="查看个人信息" style="rounded=1;whiteSpace=wrap;html=1;" vertex="1" parent="1">
          <mxGeometry x="260" y="480" width="110" height="40" as="geometry" />
        </mxCell>
        <mxCell id="clAuKbqfWR7MREJ3GIss-23" value="鼠标移动到导航栏的个人头像上" style="text;html=1;align=center;verticalAlign=middle;whiteSpace=wrap;rounded=0;" vertex="1" parent="1">
          <mxGeometry x="250" y="420" width="90" height="30" as="geometry" />
        </mxCell>
        <mxCell id="clAuKbqfWR7MREJ3GIss-24" value="" style="endArrow=classic;html=1;rounded=0;exitX=0.5;exitY=1;exitDx=0;exitDy=0;" edge="1" parent="1" source="clAuKbqfWR7MREJ3GIss-21">
          <mxGeometry width="50" height="50" relative="1" as="geometry">
            <mxPoint x="370" y="350" as="sourcePoint" />
            <mxPoint x="360" y="570" as="targetPoint" />
            <Array as="points">
              <mxPoint x="315" y="570" />
            </Array>
          </mxGeometry>
        </mxCell>
        <mxCell id="clAuKbqfWR7MREJ3GIss-25" value="个人信息页面跳转" style="rounded=1;whiteSpace=wrap;html=1;" vertex="1" parent="1">
          <mxGeometry x="360" y="550" width="110" height="40" as="geometry" />
        </mxCell>
        <mxCell id="clAuKbqfWR7MREJ3GIss-26" value="未登录用户&lt;div&gt;访问页面引导&lt;/div&gt;" style="rounded=1;whiteSpace=wrap;html=1;" vertex="1" parent="1">
          <mxGeometry x="110" y="360" width="110" height="40" as="geometry" />
        </mxCell>
        <mxCell id="clAuKbqfWR7MREJ3GIss-31" value="" style="endArrow=none;dashed=1;html=1;dashPattern=1 3;strokeWidth=2;rounded=0;exitX=1;exitY=0.5;exitDx=0;exitDy=0;" edge="1" parent="1" source="clAuKbqfWR7MREJ3GIss-26" target="clAuKbqfWR7MREJ3GIss-2">
          <mxGeometry width="50" height="50" relative="1" as="geometry">
            <mxPoint x="280" y="550" as="sourcePoint" />
            <mxPoint x="330" y="500" as="targetPoint" />
          </mxGeometry>
        </mxCell>
        <mxCell id="clAuKbqfWR7MREJ3GIss-32" value="如未登录，进入引导流程" style="text;html=1;align=center;verticalAlign=middle;whiteSpace=wrap;rounded=0;" vertex="1" parent="1">
          <mxGeometry x="225" y="350" width="140" height="30" as="geometry" />
        </mxCell>
      </root>
    </mxGraphModel>
  </diagram>
</mxfile>
